<mxfile host="app.diagrams.net" modified="2024-05-12T11:53:00.059Z" agent="Mozilla/5.0 (Macintosh; Intel Mac OS X 10_15_7) AppleWebKit/605.1.15 (KHTML, like Gecko) Version/17.4.1 Safari/605.1.15" etag="YQ-5RrqJIidFkwmVr38x" version="24.4.0" type="github" pages="2">
  <diagram name="Page-1" id="rk7zCDagK3XWyAdqjK3h">
    <mxGraphModel dx="2296" dy="1484" grid="1" gridSize="10" guides="1" tooltips="1" connect="1" arrows="1" fold="1" page="1" pageScale="1" pageWidth="827" pageHeight="1169" math="0" shadow="0">
      <root>
        <mxCell id="0" />
        <mxCell id="1" parent="0" />
        <mxCell id="EvDkCq6QSblftOuBsGYL-30" style="edgeStyle=orthogonalEdgeStyle;rounded=0;orthogonalLoop=1;jettySize=auto;html=1;exitX=1;exitY=0.5;exitDx=0;exitDy=0;entryX=0;entryY=0.5;entryDx=0;entryDy=0;fontFamily=Helvetica;fontSize=12;fontColor=default;curved=1;" parent="1" source="EvDkCq6QSblftOuBsGYL-25" target="EvDkCq6QSblftOuBsGYL-29" edge="1">
          <mxGeometry relative="1" as="geometry">
            <Array as="points">
              <mxPoint x="470" y="588" />
              <mxPoint x="470" y="640" />
              <mxPoint x="490" y="640" />
              <mxPoint x="490" y="730" />
              <mxPoint x="680" y="730" />
              <mxPoint x="680" y="790" />
            </Array>
          </mxGeometry>
        </mxCell>
        <mxCell id="EvDkCq6QSblftOuBsGYL-36" style="edgeStyle=orthogonalEdgeStyle;rounded=0;orthogonalLoop=1;jettySize=auto;html=1;exitX=0.966;exitY=0.943;exitDx=0;exitDy=0;entryX=0;entryY=0.5;entryDx=0;entryDy=0;fontFamily=Helvetica;fontSize=12;fontColor=default;curved=1;exitPerimeter=0;" parent="1" source="EvDkCq6QSblftOuBsGYL-25" target="EvDkCq6QSblftOuBsGYL-35" edge="1">
          <mxGeometry relative="1" as="geometry">
            <Array as="points">
              <mxPoint x="354" y="800" />
              <mxPoint x="410" y="800" />
              <mxPoint x="410" y="940" />
              <mxPoint x="715" y="940" />
            </Array>
          </mxGeometry>
        </mxCell>
        <mxCell id="EvDkCq6QSblftOuBsGYL-39" style="edgeStyle=orthogonalEdgeStyle;rounded=0;orthogonalLoop=1;jettySize=auto;html=1;exitX=1;exitY=0.5;exitDx=0;exitDy=0;entryX=0;entryY=0.5;entryDx=0;entryDy=0;fontFamily=Helvetica;fontSize=12;fontColor=default;curved=1;" parent="1" source="EvDkCq6QSblftOuBsGYL-25" target="EvDkCq6QSblftOuBsGYL-38" edge="1">
          <mxGeometry relative="1" as="geometry">
            <Array as="points">
              <mxPoint x="360" y="650" />
              <mxPoint x="470" y="650" />
              <mxPoint x="470" y="860" />
              <mxPoint x="680" y="860" />
              <mxPoint x="680" y="900" />
            </Array>
          </mxGeometry>
        </mxCell>
        <mxCell id="EvDkCq6QSblftOuBsGYL-50" style="edgeStyle=orthogonalEdgeStyle;rounded=0;orthogonalLoop=1;jettySize=auto;html=1;exitX=1;exitY=0.5;exitDx=0;exitDy=0;fontFamily=Helvetica;fontSize=12;fontColor=default;curved=1;" parent="1" source="EvDkCq6QSblftOuBsGYL-3" target="EvDkCq6QSblftOuBsGYL-48" edge="1">
          <mxGeometry relative="1" as="geometry">
            <Array as="points">
              <mxPoint x="500" y="60" />
              <mxPoint x="500" y="60" />
            </Array>
          </mxGeometry>
        </mxCell>
        <mxCell id="EvDkCq6QSblftOuBsGYL-3" value="PhD in Information Systems" style="rounded=0;whiteSpace=wrap;html=1;" parent="1" vertex="1">
          <mxGeometry x="140" y="40" width="210" height="40" as="geometry" />
        </mxCell>
        <mxCell id="EvDkCq6QSblftOuBsGYL-51" style="edgeStyle=orthogonalEdgeStyle;curved=1;rounded=0;orthogonalLoop=1;jettySize=auto;html=1;exitX=1;exitY=0.5;exitDx=0;exitDy=0;strokeColor=default;align=center;verticalAlign=middle;fontFamily=Helvetica;fontSize=12;fontColor=default;labelBackgroundColor=default;endArrow=classic;entryX=0;entryY=0.5;entryDx=0;entryDy=0;" parent="1" source="EvDkCq6QSblftOuBsGYL-4" edge="1" target="JA-ikaFvYNW0-lUVnMAd-2">
          <mxGeometry relative="1" as="geometry">
            <mxPoint x="560" y="100" as="targetPoint" />
            <Array as="points" />
          </mxGeometry>
        </mxCell>
        <mxCell id="EvDkCq6QSblftOuBsGYL-4" value="&lt;span style=&quot;white-space: nowrap;&quot;&gt;lecturing in&amp;nbsp;&lt;/span&gt;Information Systems" style="rounded=0;whiteSpace=wrap;html=1;" parent="1" vertex="1">
          <mxGeometry x="140" y="120" width="240" height="40" as="geometry" />
        </mxCell>
        <mxCell id="EvDkCq6QSblftOuBsGYL-58" style="edgeStyle=orthogonalEdgeStyle;curved=1;rounded=0;orthogonalLoop=1;jettySize=auto;html=1;exitX=1;exitY=0.5;exitDx=0;exitDy=0;entryX=0;entryY=0.5;entryDx=0;entryDy=0;strokeColor=default;align=center;verticalAlign=middle;fontFamily=Helvetica;fontSize=12;fontColor=default;labelBackgroundColor=default;endArrow=classic;" parent="1" source="EvDkCq6QSblftOuBsGYL-5" target="EvDkCq6QSblftOuBsGYL-57" edge="1">
          <mxGeometry relative="1" as="geometry" />
        </mxCell>
        <mxCell id="EvDkCq6QSblftOuBsGYL-5" value="Associate Professor" style="rounded=0;whiteSpace=wrap;html=1;strokeColor=default;align=center;verticalAlign=middle;fontFamily=Helvetica;fontSize=12;fontColor=default;fillColor=default;" parent="1" vertex="1">
          <mxGeometry x="142.5" y="190" width="210" height="40" as="geometry" />
        </mxCell>
        <mxCell id="EvDkCq6QSblftOuBsGYL-64" style="edgeStyle=orthogonalEdgeStyle;curved=1;rounded=0;orthogonalLoop=1;jettySize=auto;html=1;exitX=1;exitY=0.5;exitDx=0;exitDy=0;entryX=0;entryY=0.5;entryDx=0;entryDy=0;strokeColor=default;align=center;verticalAlign=middle;fontFamily=Helvetica;fontSize=12;fontColor=default;labelBackgroundColor=default;endArrow=classic;" parent="1" source="EvDkCq6QSblftOuBsGYL-16" target="EvDkCq6QSblftOuBsGYL-63" edge="1">
          <mxGeometry relative="1" as="geometry" />
        </mxCell>
        <mxCell id="EvDkCq6QSblftOuBsGYL-16" value="Department of Computer Science" style="rounded=0;whiteSpace=wrap;html=1;strokeColor=default;align=center;verticalAlign=middle;fontFamily=Helvetica;fontSize=12;fontColor=default;fillColor=default;" parent="1" vertex="1">
          <mxGeometry x="140" y="300" width="220" height="40" as="geometry" />
        </mxCell>
        <mxCell id="EvDkCq6QSblftOuBsGYL-65" style="edgeStyle=orthogonalEdgeStyle;curved=1;rounded=0;orthogonalLoop=1;jettySize=auto;html=1;exitX=1;exitY=0.5;exitDx=0;exitDy=0;entryX=0;entryY=0.5;entryDx=0;entryDy=0;strokeColor=default;align=center;verticalAlign=middle;fontFamily=Helvetica;fontSize=12;fontColor=default;labelBackgroundColor=default;endArrow=classic;" parent="1" source="EvDkCq6QSblftOuBsGYL-19" target="EvDkCq6QSblftOuBsGYL-63" edge="1">
          <mxGeometry relative="1" as="geometry" />
        </mxCell>
        <mxCell id="EvDkCq6QSblftOuBsGYL-19" value="Doctor of Science" style="rounded=0;whiteSpace=wrap;html=1;strokeColor=default;align=center;verticalAlign=middle;fontFamily=Helvetica;fontSize=12;fontColor=default;fillColor=default;" parent="1" vertex="1">
          <mxGeometry x="180" y="400" width="170" height="40" as="geometry" />
        </mxCell>
        <mxCell id="EvDkCq6QSblftOuBsGYL-70" style="edgeStyle=orthogonalEdgeStyle;curved=1;rounded=0;orthogonalLoop=1;jettySize=auto;html=1;exitX=1;exitY=0.5;exitDx=0;exitDy=0;entryX=0;entryY=0.5;entryDx=0;entryDy=0;strokeColor=default;align=center;verticalAlign=middle;fontFamily=Helvetica;fontSize=12;fontColor=default;labelBackgroundColor=default;endArrow=classic;" parent="1" source="EvDkCq6QSblftOuBsGYL-22" target="EvDkCq6QSblftOuBsGYL-69" edge="1">
          <mxGeometry relative="1" as="geometry" />
        </mxCell>
        <mxCell id="EvDkCq6QSblftOuBsGYL-22" value="Chris Wallace Award" style="rounded=0;whiteSpace=wrap;html=1;strokeColor=default;align=center;verticalAlign=middle;fontFamily=Helvetica;fontSize=12;fontColor=default;fillColor=default;" parent="1" vertex="1">
          <mxGeometry x="200" y="480" width="160" height="40" as="geometry" />
        </mxCell>
        <mxCell id="EvDkCq6QSblftOuBsGYL-75" style="edgeStyle=orthogonalEdgeStyle;curved=1;rounded=0;orthogonalLoop=1;jettySize=auto;html=1;exitX=1;exitY=0.5;exitDx=0;exitDy=0;entryX=0;entryY=0.5;entryDx=0;entryDy=0;strokeColor=default;align=center;verticalAlign=middle;fontFamily=Helvetica;fontSize=12;fontColor=default;labelBackgroundColor=default;endArrow=classic;" parent="1" source="EvDkCq6QSblftOuBsGYL-25" target="EvDkCq6QSblftOuBsGYL-72" edge="1">
          <mxGeometry relative="1" as="geometry" />
        </mxCell>
        <mxCell id="EvDkCq6QSblftOuBsGYL-76" style="edgeStyle=orthogonalEdgeStyle;curved=1;rounded=0;orthogonalLoop=1;jettySize=auto;html=1;exitX=1;exitY=0.5;exitDx=0;exitDy=0;entryX=0;entryY=0.5;entryDx=0;entryDy=0;strokeColor=default;align=center;verticalAlign=middle;fontFamily=Helvetica;fontSize=12;fontColor=default;labelBackgroundColor=default;endArrow=classic;" parent="1" source="EvDkCq6QSblftOuBsGYL-25" target="EvDkCq6QSblftOuBsGYL-73" edge="1">
          <mxGeometry relative="1" as="geometry" />
        </mxCell>
        <mxCell id="EvDkCq6QSblftOuBsGYL-77" style="edgeStyle=orthogonalEdgeStyle;curved=1;rounded=0;orthogonalLoop=1;jettySize=auto;html=1;exitX=1;exitY=0.5;exitDx=0;exitDy=0;entryX=0;entryY=0.5;entryDx=0;entryDy=0;strokeColor=default;align=center;verticalAlign=middle;fontFamily=Helvetica;fontSize=12;fontColor=default;labelBackgroundColor=default;endArrow=classic;" parent="1" source="EvDkCq6QSblftOuBsGYL-25" target="EvDkCq6QSblftOuBsGYL-74" edge="1">
          <mxGeometry relative="1" as="geometry">
            <Array as="points">
              <mxPoint x="515" y="588" />
              <mxPoint x="515" y="690" />
            </Array>
          </mxGeometry>
        </mxCell>
        <mxCell id="JA-ikaFvYNW0-lUVnMAd-3" style="edgeStyle=orthogonalEdgeStyle;rounded=0;orthogonalLoop=1;jettySize=auto;html=1;exitX=0.5;exitY=1;exitDx=0;exitDy=0;entryX=0;entryY=0.75;entryDx=0;entryDy=0;curved=1;" edge="1" parent="1" source="EvDkCq6QSblftOuBsGYL-25" target="EvDkCq6QSblftOuBsGYL-42">
          <mxGeometry relative="1" as="geometry" />
        </mxCell>
        <mxCell id="JA-ikaFvYNW0-lUVnMAd-4" style="edgeStyle=orthogonalEdgeStyle;rounded=0;orthogonalLoop=1;jettySize=auto;html=1;exitX=0.25;exitY=1;exitDx=0;exitDy=0;entryX=0;entryY=0.5;entryDx=0;entryDy=0;curved=1;" edge="1" parent="1" source="EvDkCq6QSblftOuBsGYL-25" target="EvDkCq6QSblftOuBsGYL-45">
          <mxGeometry relative="1" as="geometry" />
        </mxCell>
        <mxCell id="JA-ikaFvYNW0-lUVnMAd-5" style="edgeStyle=orthogonalEdgeStyle;rounded=0;orthogonalLoop=1;jettySize=auto;html=1;exitX=0;exitY=1;exitDx=0;exitDy=0;entryX=0;entryY=0.75;entryDx=0;entryDy=0;curved=1;" edge="1" parent="1" source="EvDkCq6QSblftOuBsGYL-25" target="EvDkCq6QSblftOuBsGYL-32">
          <mxGeometry relative="1" as="geometry" />
        </mxCell>
        <mxCell id="EvDkCq6QSblftOuBsGYL-25" value="Editorial Board Member" style="rounded=0;whiteSpace=wrap;html=1;strokeColor=default;align=center;verticalAlign=middle;fontFamily=Helvetica;fontSize=12;fontColor=default;fillColor=default;" parent="1" vertex="1">
          <mxGeometry x="185" y="570" width="175" height="35" as="geometry" />
        </mxCell>
        <mxCell id="EvDkCq6QSblftOuBsGYL-29" value="ACM_SIGMOD" style="rounded=0;whiteSpace=wrap;html=1;strokeColor=default;align=center;verticalAlign=middle;fontFamily=Helvetica;fontSize=12;fontColor=default;fillColor=default;" parent="1" vertex="1">
          <mxGeometry x="707.5" y="770" width="125" height="40" as="geometry" />
        </mxCell>
        <mxCell id="EvDkCq6QSblftOuBsGYL-32" value="ACM_TransactionsOnDatabaseSystem" style="rounded=0;whiteSpace=wrap;html=1;strokeColor=default;align=center;verticalAlign=middle;fontFamily=Helvetica;fontSize=12;fontColor=default;fillColor=default;" parent="1" vertex="1">
          <mxGeometry x="690" y="1200" width="245" height="40" as="geometry" />
        </mxCell>
        <mxCell id="EvDkCq6QSblftOuBsGYL-35" value="IEEE_ICDE" style="rounded=0;whiteSpace=wrap;html=1;strokeColor=default;align=center;verticalAlign=middle;fontFamily=Helvetica;fontSize=12;fontColor=default;fillColor=default;" parent="1" vertex="1">
          <mxGeometry x="715" y="970" width="125" height="40" as="geometry" />
        </mxCell>
        <mxCell id="EvDkCq6QSblftOuBsGYL-38" value="IEEE_TransactionsOnKnowledgeAndDataEngineering" style="rounded=0;whiteSpace=wrap;html=1;strokeColor=default;align=center;verticalAlign=middle;fontFamily=Helvetica;fontSize=12;fontColor=default;fillColor=default;" parent="1" vertex="1">
          <mxGeometry x="707.5" y="880" width="345" height="40" as="geometry" />
        </mxCell>
        <mxCell id="EvDkCq6QSblftOuBsGYL-42" value="VLOB" style="rounded=0;whiteSpace=wrap;html=1;strokeColor=default;align=center;verticalAlign=middle;fontFamily=Helvetica;fontSize=12;fontColor=default;fillColor=default;" parent="1" vertex="1">
          <mxGeometry x="700" y="1040" width="120" height="40" as="geometry" />
        </mxCell>
        <mxCell id="EvDkCq6QSblftOuBsGYL-45" value="TheVLDBJournal" style="rounded=0;whiteSpace=wrap;html=1;strokeColor=default;align=center;verticalAlign=middle;fontFamily=Helvetica;fontSize=12;fontColor=default;fillColor=default;" parent="1" vertex="1">
          <mxGeometry x="710" y="1110" width="120" height="40" as="geometry" />
        </mxCell>
        <mxCell id="EvDkCq6QSblftOuBsGYL-48" value="MasseyUniversity" style="rounded=0;whiteSpace=wrap;html=1;strokeColor=default;align=center;verticalAlign=middle;fontFamily=Helvetica;fontSize=12;fontColor=default;fillColor=default;" parent="1" vertex="1">
          <mxGeometry x="560" y="40" width="140" height="40" as="geometry" />
        </mxCell>
        <mxCell id="EvDkCq6QSblftOuBsGYL-57" value="School of Information Management" style="rounded=0;whiteSpace=wrap;html=1;strokeColor=default;align=center;verticalAlign=middle;fontFamily=Helvetica;fontSize=12;fontColor=default;labelBackgroundColor=default;fillColor=default;" parent="1" vertex="1">
          <mxGeometry x="500" y="190" width="230" height="40" as="geometry" />
        </mxCell>
        <mxCell id="JA-ikaFvYNW0-lUVnMAd-1" style="edgeStyle=orthogonalEdgeStyle;rounded=0;orthogonalLoop=1;jettySize=auto;html=1;exitX=1;exitY=0.5;exitDx=0;exitDy=0;entryX=0;entryY=1;entryDx=0;entryDy=0;curved=1;" edge="1" parent="1" source="EvDkCq6QSblftOuBsGYL-60" target="EvDkCq6QSblftOuBsGYL-57">
          <mxGeometry relative="1" as="geometry" />
        </mxCell>
        <mxCell id="EvDkCq6QSblftOuBsGYL-60" value="Victoria University of Wellington" style="rounded=0;whiteSpace=wrap;html=1;strokeColor=default;align=center;verticalAlign=middle;fontFamily=Helvetica;fontSize=12;fontColor=default;labelBackgroundColor=default;fillColor=default;" parent="1" vertex="1">
          <mxGeometry x="140" y="248" width="250" height="45" as="geometry" />
        </mxCell>
        <mxCell id="EvDkCq6QSblftOuBsGYL-63" value="University of Auckland" style="rounded=0;whiteSpace=wrap;html=1;strokeColor=default;align=center;verticalAlign=middle;fontFamily=Helvetica;fontSize=12;fontColor=default;labelBackgroundColor=default;fillColor=default;" parent="1" vertex="1">
          <mxGeometry x="580" y="360" width="180" height="40" as="geometry" />
        </mxCell>
        <mxCell id="EvDkCq6QSblftOuBsGYL-69" value="Computing Research and Education Association of Australasia" style="rounded=0;whiteSpace=wrap;html=1;strokeColor=default;align=center;verticalAlign=middle;fontFamily=Helvetica;fontSize=12;fontColor=default;labelBackgroundColor=default;fillColor=default;" parent="1" vertex="1">
          <mxGeometry x="610" y="480" width="450" height="40" as="geometry" />
        </mxCell>
        <mxCell id="EvDkCq6QSblftOuBsGYL-72" value="InformationSystemsjournal" style="rounded=0;whiteSpace=wrap;html=1;strokeColor=default;align=center;verticalAlign=middle;fontFamily=Helvetica;fontSize=12;fontColor=default;labelBackgroundColor=default;fillColor=default;" parent="1" vertex="1">
          <mxGeometry x="670" y="545" width="170" height="40" as="geometry" />
        </mxCell>
        <mxCell id="EvDkCq6QSblftOuBsGYL-73" value="Data And Knowledge Engineering" style="rounded=0;whiteSpace=wrap;html=1;strokeColor=default;align=center;verticalAlign=middle;fontFamily=Helvetica;fontSize=12;fontColor=default;labelBackgroundColor=default;fillColor=default;" parent="1" vertex="1">
          <mxGeometry x="670" y="605" width="200" height="40" as="geometry" />
        </mxCell>
        <mxCell id="EvDkCq6QSblftOuBsGYL-74" value="Proceedings Of The VLDB Endowment" style="rounded=0;whiteSpace=wrap;html=1;strokeColor=default;align=center;verticalAlign=middle;fontFamily=Helvetica;fontSize=12;fontColor=default;labelBackgroundColor=default;fillColor=default;" parent="1" vertex="1">
          <mxGeometry x="670" y="670" width="250" height="40" as="geometry" />
        </mxCell>
        <mxCell id="JA-ikaFvYNW0-lUVnMAd-2" value="Massey University, Palmerston North" style="rounded=0;whiteSpace=wrap;html=1;" vertex="1" parent="1">
          <mxGeometry x="570" y="120" width="220" height="40" as="geometry" />
        </mxCell>
      </root>
    </mxGraphModel>
  </diagram>
  <diagram id="18wo-GTi2EKtby6vZ8wL" name="Page-2">
    <mxGraphModel dx="3217" dy="2594" grid="1" gridSize="10" guides="1" tooltips="1" connect="1" arrows="1" fold="1" page="1" pageScale="1" pageWidth="827" pageHeight="1169" math="0" shadow="0">
      <root>
        <mxCell id="0" />
        <mxCell id="1" parent="0" />
        <mxCell id="JpCoMmdV8bpTrKrpRwIH-7" style="edgeStyle=orthogonalEdgeStyle;curved=1;rounded=0;orthogonalLoop=1;jettySize=auto;html=1;exitX=1;exitY=0.5;exitDx=0;exitDy=0;entryX=0;entryY=0.5;entryDx=0;entryDy=0;strokeColor=default;align=center;verticalAlign=middle;fontFamily=Helvetica;fontSize=12;fontColor=default;labelBackgroundColor=default;endArrow=classic;" edge="1" parent="1" source="JpCoMmdV8bpTrKrpRwIH-1" target="JpCoMmdV8bpTrKrpRwIH-2">
          <mxGeometry relative="1" as="geometry">
            <Array as="points">
              <mxPoint x="80" y="410" />
              <mxPoint x="80" y="50" />
            </Array>
          </mxGeometry>
        </mxCell>
        <mxCell id="JpCoMmdV8bpTrKrpRwIH-8" style="edgeStyle=orthogonalEdgeStyle;curved=1;rounded=0;orthogonalLoop=1;jettySize=auto;html=1;exitX=1;exitY=0.5;exitDx=0;exitDy=0;entryX=0;entryY=0.5;entryDx=0;entryDy=0;strokeColor=default;align=center;verticalAlign=middle;fontFamily=Helvetica;fontSize=12;fontColor=default;labelBackgroundColor=default;endArrow=classic;" edge="1" parent="1" source="JpCoMmdV8bpTrKrpRwIH-1" target="JpCoMmdV8bpTrKrpRwIH-3">
          <mxGeometry relative="1" as="geometry" />
        </mxCell>
        <mxCell id="JpCoMmdV8bpTrKrpRwIH-9" style="edgeStyle=orthogonalEdgeStyle;curved=1;rounded=0;orthogonalLoop=1;jettySize=auto;html=1;exitX=1;exitY=0.5;exitDx=0;exitDy=0;entryX=0;entryY=0.5;entryDx=0;entryDy=0;strokeColor=default;align=center;verticalAlign=middle;fontFamily=Helvetica;fontSize=12;fontColor=default;labelBackgroundColor=default;endArrow=classic;" edge="1" parent="1" source="JpCoMmdV8bpTrKrpRwIH-1" target="JpCoMmdV8bpTrKrpRwIH-4">
          <mxGeometry relative="1" as="geometry" />
        </mxCell>
        <mxCell id="JpCoMmdV8bpTrKrpRwIH-10" style="edgeStyle=orthogonalEdgeStyle;curved=1;rounded=0;orthogonalLoop=1;jettySize=auto;html=1;exitX=1;exitY=0.5;exitDx=0;exitDy=0;entryX=0;entryY=0.5;entryDx=0;entryDy=0;strokeColor=default;align=center;verticalAlign=middle;fontFamily=Helvetica;fontSize=12;fontColor=default;labelBackgroundColor=default;endArrow=classic;" edge="1" parent="1" source="JpCoMmdV8bpTrKrpRwIH-1" target="JpCoMmdV8bpTrKrpRwIH-5">
          <mxGeometry relative="1" as="geometry">
            <Array as="points">
              <mxPoint x="180" y="410" />
              <mxPoint x="180" y="565" />
            </Array>
          </mxGeometry>
        </mxCell>
        <mxCell id="JpCoMmdV8bpTrKrpRwIH-11" style="edgeStyle=orthogonalEdgeStyle;curved=1;rounded=0;orthogonalLoop=1;jettySize=auto;html=1;exitX=1;exitY=0.5;exitDx=0;exitDy=0;entryX=0;entryY=0.5;entryDx=0;entryDy=0;strokeColor=default;align=center;verticalAlign=middle;fontFamily=Helvetica;fontSize=12;fontColor=default;labelBackgroundColor=default;endArrow=classic;" edge="1" parent="1" source="JpCoMmdV8bpTrKrpRwIH-1" target="JpCoMmdV8bpTrKrpRwIH-6">
          <mxGeometry relative="1" as="geometry" />
        </mxCell>
        <mxCell id="JpCoMmdV8bpTrKrpRwIH-1" value="Sebastian" style="rounded=0;whiteSpace=wrap;html=1;strokeColor=default;align=center;verticalAlign=middle;fontFamily=Helvetica;fontSize=12;fontColor=default;labelBackgroundColor=default;fillColor=default;" vertex="1" parent="1">
          <mxGeometry x="-60" y="390" width="90" height="40" as="geometry" />
        </mxCell>
        <mxCell id="JpCoMmdV8bpTrKrpRwIH-13" style="edgeStyle=orthogonalEdgeStyle;curved=1;rounded=0;orthogonalLoop=1;jettySize=auto;html=1;exitX=1;exitY=0.5;exitDx=0;exitDy=0;entryX=0;entryY=0.5;entryDx=0;entryDy=0;strokeColor=default;align=center;verticalAlign=middle;fontFamily=Helvetica;fontSize=12;fontColor=default;labelBackgroundColor=default;endArrow=classic;" edge="1" parent="1" source="JpCoMmdV8bpTrKrpRwIH-2" target="JpCoMmdV8bpTrKrpRwIH-12">
          <mxGeometry relative="1" as="geometry" />
        </mxCell>
        <mxCell id="JpCoMmdV8bpTrKrpRwIH-15" style="edgeStyle=orthogonalEdgeStyle;curved=1;rounded=0;orthogonalLoop=1;jettySize=auto;html=1;exitX=1;exitY=0.5;exitDx=0;exitDy=0;entryX=0;entryY=0.5;entryDx=0;entryDy=0;strokeColor=default;align=center;verticalAlign=middle;fontFamily=Helvetica;fontSize=12;fontColor=default;labelBackgroundColor=default;endArrow=classic;" edge="1" parent="1" source="JpCoMmdV8bpTrKrpRwIH-2" target="JpCoMmdV8bpTrKrpRwIH-14">
          <mxGeometry relative="1" as="geometry" />
        </mxCell>
        <mxCell id="JpCoMmdV8bpTrKrpRwIH-2" value="Education" style="rounded=0;whiteSpace=wrap;html=1;strokeColor=default;align=center;verticalAlign=middle;fontFamily=Helvetica;fontSize=12;fontColor=default;labelBackgroundColor=default;fillColor=default;" vertex="1" parent="1">
          <mxGeometry x="240" y="30" width="100" height="40" as="geometry" />
        </mxCell>
        <mxCell id="JpCoMmdV8bpTrKrpRwIH-18" style="edgeStyle=orthogonalEdgeStyle;curved=1;rounded=0;orthogonalLoop=1;jettySize=auto;html=1;exitX=1;exitY=0.5;exitDx=0;exitDy=0;entryX=0;entryY=0.5;entryDx=0;entryDy=0;strokeColor=default;align=center;verticalAlign=middle;fontFamily=Helvetica;fontSize=12;fontColor=default;labelBackgroundColor=default;endArrow=classic;" edge="1" parent="1" source="JpCoMmdV8bpTrKrpRwIH-3" target="JpCoMmdV8bpTrKrpRwIH-16">
          <mxGeometry relative="1" as="geometry" />
        </mxCell>
        <mxCell id="JpCoMmdV8bpTrKrpRwIH-20" style="edgeStyle=orthogonalEdgeStyle;curved=1;rounded=0;orthogonalLoop=1;jettySize=auto;html=1;exitX=1;exitY=0.5;exitDx=0;exitDy=0;entryX=0;entryY=0.5;entryDx=0;entryDy=0;strokeColor=default;align=center;verticalAlign=middle;fontFamily=Helvetica;fontSize=12;fontColor=default;labelBackgroundColor=default;endArrow=classic;" edge="1" parent="1" source="JpCoMmdV8bpTrKrpRwIH-3" target="JpCoMmdV8bpTrKrpRwIH-19">
          <mxGeometry relative="1" as="geometry" />
        </mxCell>
        <mxCell id="JpCoMmdV8bpTrKrpRwIH-22" style="edgeStyle=orthogonalEdgeStyle;curved=1;rounded=0;orthogonalLoop=1;jettySize=auto;html=1;exitX=1;exitY=0.5;exitDx=0;exitDy=0;entryX=0;entryY=0.5;entryDx=0;entryDy=0;strokeColor=default;align=center;verticalAlign=middle;fontFamily=Helvetica;fontSize=12;fontColor=default;labelBackgroundColor=default;endArrow=classic;" edge="1" parent="1" source="JpCoMmdV8bpTrKrpRwIH-3" target="JpCoMmdV8bpTrKrpRwIH-21">
          <mxGeometry relative="1" as="geometry" />
        </mxCell>
        <mxCell id="JpCoMmdV8bpTrKrpRwIH-3" value="Employment History" style="rounded=0;whiteSpace=wrap;html=1;strokeColor=default;align=center;verticalAlign=middle;fontFamily=Helvetica;fontSize=12;fontColor=default;labelBackgroundColor=default;fillColor=default;" vertex="1" parent="1">
          <mxGeometry x="240" y="190" width="150" height="40" as="geometry" />
        </mxCell>
        <mxCell id="JpCoMmdV8bpTrKrpRwIH-4" value="Awards" style="rounded=0;whiteSpace=wrap;html=1;strokeColor=default;align=center;verticalAlign=middle;fontFamily=Helvetica;fontSize=12;fontColor=default;labelBackgroundColor=default;fillColor=default;" vertex="1" parent="1">
          <mxGeometry x="275" y="390" width="120" height="40" as="geometry" />
        </mxCell>
        <mxCell id="JpCoMmdV8bpTrKrpRwIH-28" style="edgeStyle=orthogonalEdgeStyle;curved=1;rounded=0;orthogonalLoop=1;jettySize=auto;html=1;exitX=1;exitY=0.5;exitDx=0;exitDy=0;entryX=0;entryY=0.5;entryDx=0;entryDy=0;strokeColor=default;align=center;verticalAlign=middle;fontFamily=Helvetica;fontSize=12;fontColor=default;labelBackgroundColor=default;endArrow=classic;" edge="1" parent="1" source="JpCoMmdV8bpTrKrpRwIH-5" target="JpCoMmdV8bpTrKrpRwIH-25">
          <mxGeometry relative="1" as="geometry" />
        </mxCell>
        <mxCell id="JpCoMmdV8bpTrKrpRwIH-29" style="edgeStyle=orthogonalEdgeStyle;curved=1;rounded=0;orthogonalLoop=1;jettySize=auto;html=1;exitX=1;exitY=0.5;exitDx=0;exitDy=0;entryX=0;entryY=0.5;entryDx=0;entryDy=0;strokeColor=default;align=center;verticalAlign=middle;fontFamily=Helvetica;fontSize=12;fontColor=default;labelBackgroundColor=default;endArrow=classic;" edge="1" parent="1" source="JpCoMmdV8bpTrKrpRwIH-5" target="JpCoMmdV8bpTrKrpRwIH-26">
          <mxGeometry relative="1" as="geometry" />
        </mxCell>
        <mxCell id="JpCoMmdV8bpTrKrpRwIH-30" style="edgeStyle=orthogonalEdgeStyle;curved=1;rounded=0;orthogonalLoop=1;jettySize=auto;html=1;exitX=1;exitY=0.5;exitDx=0;exitDy=0;entryX=0;entryY=0.5;entryDx=0;entryDy=0;strokeColor=default;align=center;verticalAlign=middle;fontFamily=Helvetica;fontSize=12;fontColor=default;labelBackgroundColor=default;endArrow=classic;" edge="1" parent="1" source="JpCoMmdV8bpTrKrpRwIH-5" target="JpCoMmdV8bpTrKrpRwIH-27">
          <mxGeometry relative="1" as="geometry" />
        </mxCell>
        <mxCell id="JpCoMmdV8bpTrKrpRwIH-5" value="Editorial Board Memberships" style="rounded=0;whiteSpace=wrap;html=1;strokeColor=default;align=center;verticalAlign=middle;fontFamily=Helvetica;fontSize=12;fontColor=default;labelBackgroundColor=default;fillColor=default;" vertex="1" parent="1">
          <mxGeometry x="235" y="544.5" width="210" height="40" as="geometry" />
        </mxCell>
        <mxCell id="JpCoMmdV8bpTrKrpRwIH-31" style="edgeStyle=orthogonalEdgeStyle;curved=1;rounded=0;orthogonalLoop=1;jettySize=auto;html=1;exitX=1;exitY=0.5;exitDx=0;exitDy=0;entryX=0;entryY=0.75;entryDx=0;entryDy=0;strokeColor=default;align=center;verticalAlign=middle;fontFamily=Helvetica;fontSize=12;fontColor=default;labelBackgroundColor=default;endArrow=classic;" edge="1" parent="1" source="JpCoMmdV8bpTrKrpRwIH-6" target="JpCoMmdV8bpTrKrpRwIH-27">
          <mxGeometry relative="1" as="geometry" />
        </mxCell>
        <mxCell id="JpCoMmdV8bpTrKrpRwIH-37" style="edgeStyle=orthogonalEdgeStyle;curved=1;rounded=0;orthogonalLoop=1;jettySize=auto;html=1;exitX=1;exitY=0.5;exitDx=0;exitDy=0;entryX=0;entryY=0.5;entryDx=0;entryDy=0;strokeColor=default;align=center;verticalAlign=middle;fontFamily=Helvetica;fontSize=12;fontColor=default;labelBackgroundColor=default;endArrow=classic;" edge="1" parent="1" source="JpCoMmdV8bpTrKrpRwIH-6" target="JpCoMmdV8bpTrKrpRwIH-32">
          <mxGeometry relative="1" as="geometry" />
        </mxCell>
        <mxCell id="JpCoMmdV8bpTrKrpRwIH-38" style="edgeStyle=orthogonalEdgeStyle;curved=1;rounded=0;orthogonalLoop=1;jettySize=auto;html=1;exitX=1;exitY=0.5;exitDx=0;exitDy=0;entryX=0;entryY=0.5;entryDx=0;entryDy=0;strokeColor=default;align=center;verticalAlign=middle;fontFamily=Helvetica;fontSize=12;fontColor=default;labelBackgroundColor=default;endArrow=classic;" edge="1" parent="1" source="JpCoMmdV8bpTrKrpRwIH-6" target="JpCoMmdV8bpTrKrpRwIH-33">
          <mxGeometry relative="1" as="geometry" />
        </mxCell>
        <mxCell id="JpCoMmdV8bpTrKrpRwIH-39" style="edgeStyle=orthogonalEdgeStyle;curved=1;rounded=0;orthogonalLoop=1;jettySize=auto;html=1;exitX=1;exitY=0.5;exitDx=0;exitDy=0;entryX=0;entryY=0.5;entryDx=0;entryDy=0;strokeColor=default;align=center;verticalAlign=middle;fontFamily=Helvetica;fontSize=12;fontColor=default;labelBackgroundColor=default;endArrow=classic;" edge="1" parent="1" source="JpCoMmdV8bpTrKrpRwIH-6" target="JpCoMmdV8bpTrKrpRwIH-34">
          <mxGeometry relative="1" as="geometry" />
        </mxCell>
        <mxCell id="JpCoMmdV8bpTrKrpRwIH-40" style="edgeStyle=orthogonalEdgeStyle;curved=1;rounded=0;orthogonalLoop=1;jettySize=auto;html=1;exitX=1;exitY=0.5;exitDx=0;exitDy=0;entryX=0;entryY=0.5;entryDx=0;entryDy=0;strokeColor=default;align=center;verticalAlign=middle;fontFamily=Helvetica;fontSize=12;fontColor=default;labelBackgroundColor=default;endArrow=classic;" edge="1" parent="1" source="JpCoMmdV8bpTrKrpRwIH-6" target="JpCoMmdV8bpTrKrpRwIH-35">
          <mxGeometry relative="1" as="geometry" />
        </mxCell>
        <mxCell id="JpCoMmdV8bpTrKrpRwIH-41" style="edgeStyle=orthogonalEdgeStyle;curved=1;rounded=0;orthogonalLoop=1;jettySize=auto;html=1;exitX=1;exitY=0.5;exitDx=0;exitDy=0;entryX=0;entryY=0.5;entryDx=0;entryDy=0;strokeColor=default;align=center;verticalAlign=middle;fontFamily=Helvetica;fontSize=12;fontColor=default;labelBackgroundColor=default;endArrow=classic;" edge="1" parent="1" source="JpCoMmdV8bpTrKrpRwIH-6" target="JpCoMmdV8bpTrKrpRwIH-36">
          <mxGeometry relative="1" as="geometry" />
        </mxCell>
        <mxCell id="JpCoMmdV8bpTrKrpRwIH-6" value="Reviewing Activities" style="rounded=0;whiteSpace=wrap;html=1;strokeColor=default;align=center;verticalAlign=middle;fontFamily=Helvetica;fontSize=12;fontColor=default;labelBackgroundColor=default;fillColor=default;" vertex="1" parent="1">
          <mxGeometry x="235" y="700" width="160" height="40" as="geometry" />
        </mxCell>
        <mxCell id="JpCoMmdV8bpTrKrpRwIH-12" value="PhD in Information Systems&amp;nbsp;&lt;div&gt;from Massey University&lt;/div&gt;&lt;div&gt;Year: 2005&lt;/div&gt;" style="rounded=0;whiteSpace=wrap;html=1;strokeColor=default;align=center;verticalAlign=middle;fontFamily=Helvetica;fontSize=12;fontColor=default;labelBackgroundColor=default;fillColor=default;" vertex="1" parent="1">
          <mxGeometry x="520" y="-160" width="230" height="60" as="geometry" />
        </mxCell>
        <mxCell id="JpCoMmdV8bpTrKrpRwIH-14" value="Doctor of Science&lt;div&gt;from University of Auckland&lt;/div&gt;&lt;div&gt;Year: 2015&lt;/div&gt;" style="rounded=0;whiteSpace=wrap;html=1;strokeColor=default;align=center;verticalAlign=middle;fontFamily=Helvetica;fontSize=12;fontColor=default;labelBackgroundColor=default;fillColor=default;" vertex="1" parent="1">
          <mxGeometry x="520" y="-50" width="230" height="80" as="geometry" />
        </mxCell>
        <mxCell id="JpCoMmdV8bpTrKrpRwIH-16" value="Lecturer in Information Systems&lt;div&gt;at Massey University&lt;/div&gt;&lt;div&gt;Palmerston North&lt;/div&gt;&lt;div&gt;2005-2007&lt;/div&gt;" style="rounded=0;whiteSpace=wrap;html=1;strokeColor=default;align=center;verticalAlign=middle;fontFamily=Helvetica;fontSize=12;fontColor=default;labelBackgroundColor=default;fillColor=default;" vertex="1" parent="1">
          <mxGeometry x="520" y="50" width="230" height="80" as="geometry" />
        </mxCell>
        <mxCell id="JpCoMmdV8bpTrKrpRwIH-19" value="Associate Professor&lt;div&gt;at Victoria University of Wellington&lt;/div&gt;&lt;div&gt;2008-2011&lt;/div&gt;" style="rounded=0;whiteSpace=wrap;html=1;strokeColor=default;align=center;verticalAlign=middle;fontFamily=Helvetica;fontSize=12;fontColor=default;labelBackgroundColor=default;fillColor=default;" vertex="1" parent="1">
          <mxGeometry x="520" y="177.5" width="240" height="65" as="geometry" />
        </mxCell>
        <mxCell id="JpCoMmdV8bpTrKrpRwIH-21" value="Joined Department of Computer Science&lt;div&gt;at University of Auckland&lt;/div&gt;&lt;div&gt;2012-present&lt;/div&gt;" style="rounded=0;whiteSpace=wrap;html=1;strokeColor=default;align=center;verticalAlign=middle;fontFamily=Helvetica;fontSize=12;fontColor=default;labelBackgroundColor=default;fillColor=default;" vertex="1" parent="1">
          <mxGeometry x="520" y="280" width="240" height="70" as="geometry" />
        </mxCell>
        <mxCell id="JpCoMmdV8bpTrKrpRwIH-23" value="Chris Wallace Award&lt;div&gt;Year: 2013&lt;/div&gt;&lt;div&gt;For outstanding research contributions to Australia and New Zealand&lt;/div&gt;&lt;div&gt;Organization: CORE&lt;/div&gt;" style="rounded=0;whiteSpace=wrap;html=1;strokeColor=default;align=center;verticalAlign=middle;fontFamily=Helvetica;fontSize=12;fontColor=default;labelBackgroundColor=default;fillColor=default;" vertex="1" parent="1">
          <mxGeometry x="520" y="370" width="390" height="100" as="geometry" />
        </mxCell>
        <mxCell id="JpCoMmdV8bpTrKrpRwIH-24" style="edgeStyle=orthogonalEdgeStyle;curved=1;rounded=0;orthogonalLoop=1;jettySize=auto;html=1;exitX=1;exitY=0.5;exitDx=0;exitDy=0;entryX=0;entryY=0.5;entryDx=0;entryDy=0;strokeColor=default;align=center;verticalAlign=middle;fontFamily=Helvetica;fontSize=12;fontColor=default;labelBackgroundColor=default;endArrow=classic;" edge="1" parent="1" source="JpCoMmdV8bpTrKrpRwIH-4" target="JpCoMmdV8bpTrKrpRwIH-23">
          <mxGeometry relative="1" as="geometry" />
        </mxCell>
        <mxCell id="JpCoMmdV8bpTrKrpRwIH-25" value="Information Systems" style="rounded=0;whiteSpace=wrap;html=1;strokeColor=default;align=center;verticalAlign=middle;fontFamily=Helvetica;fontSize=12;fontColor=default;labelBackgroundColor=default;fillColor=default;" vertex="1" parent="1">
          <mxGeometry x="580" y="490" width="195" height="45.5" as="geometry" />
        </mxCell>
        <mxCell id="JpCoMmdV8bpTrKrpRwIH-26" value="Data and Knowledge Engineering" style="rounded=0;whiteSpace=wrap;html=1;strokeColor=default;align=center;verticalAlign=middle;fontFamily=Helvetica;fontSize=12;fontColor=default;labelBackgroundColor=default;fillColor=default;" vertex="1" parent="1">
          <mxGeometry x="580" y="560" width="230" height="40" as="geometry" />
        </mxCell>
        <mxCell id="JpCoMmdV8bpTrKrpRwIH-27" value="VLOB" style="rounded=0;whiteSpace=wrap;html=1;strokeColor=default;align=center;verticalAlign=middle;fontFamily=Helvetica;fontSize=12;fontColor=default;labelBackgroundColor=default;fillColor=default;" vertex="1" parent="1">
          <mxGeometry x="580" y="630" width="75" height="40" as="geometry" />
        </mxCell>
        <mxCell id="JpCoMmdV8bpTrKrpRwIH-32" value="ACM SIGMOD" style="rounded=0;whiteSpace=wrap;html=1;strokeColor=default;align=center;verticalAlign=middle;fontFamily=Helvetica;fontSize=12;fontColor=default;labelBackgroundColor=default;fillColor=default;" vertex="1" parent="1">
          <mxGeometry x="580" y="710" width="100" height="40" as="geometry" />
        </mxCell>
        <mxCell id="JpCoMmdV8bpTrKrpRwIH-33" value="ACM Transactions on Database System" style="rounded=0;whiteSpace=wrap;html=1;strokeColor=default;align=center;verticalAlign=middle;fontFamily=Helvetica;fontSize=12;fontColor=default;labelBackgroundColor=default;fillColor=default;" vertex="1" parent="1">
          <mxGeometry x="575" y="800" width="275" height="50" as="geometry" />
        </mxCell>
        <mxCell id="JpCoMmdV8bpTrKrpRwIH-34" value="IEEE ICDE" style="rounded=0;whiteSpace=wrap;html=1;strokeColor=default;align=center;verticalAlign=middle;fontFamily=Helvetica;fontSize=12;fontColor=default;labelBackgroundColor=default;fillColor=default;" vertex="1" parent="1">
          <mxGeometry x="575" y="890" width="100" height="40" as="geometry" />
        </mxCell>
        <mxCell id="JpCoMmdV8bpTrKrpRwIH-35" value="IEEE Transaction on Knowledge and Data Engineering" style="rounded=0;whiteSpace=wrap;html=1;strokeColor=default;align=center;verticalAlign=middle;fontFamily=Helvetica;fontSize=12;fontColor=default;labelBackgroundColor=default;fillColor=default;" vertex="1" parent="1">
          <mxGeometry x="575" y="970" width="320" height="40" as="geometry" />
        </mxCell>
        <mxCell id="JpCoMmdV8bpTrKrpRwIH-36" value="VLOB Journal" style="rounded=0;whiteSpace=wrap;html=1;strokeColor=default;align=center;verticalAlign=middle;fontFamily=Helvetica;fontSize=12;fontColor=default;labelBackgroundColor=default;fillColor=default;" vertex="1" parent="1">
          <mxGeometry x="575" y="1060" width="95" height="40" as="geometry" />
        </mxCell>
      </root>
    </mxGraphModel>
  </diagram>
</mxfile>
